<svg width="34" height="34" viewBox="0 0 34 34" fill="none" xmlns="http://www.w3.org/2000/svg">
<circle cx="17" cy="17" r="16.5" stroke="white" stroke-opacity="0.5"/>
<path d="M14.7963 25C14.7963 24.2766 14.7963 23.5767 14.7963 22.9002C14.7963 22.2237 14.7963 21.4702 14.7963 20.6397V19.635C14.7963 19.2331 14.7963 18.8011 14.7963 18.3389C14.7963 17.8768 14.7963 17.3979 14.7963 16.9022C14.7963 16.3999 14.7963 15.8975 14.7963 15.3952C14.7963 14.8861 14.7963 14.3871 14.7963 13.8982C14.7963 13.1346 14.9043 12.5017 15.1201 11.9993C15.3429 11.497 15.6423 11.0985 16.0183 10.8038C16.4012 10.509 16.8329 10.3014 17.3133 10.1808C17.8007 10.0603 18.3159 10 18.859 10C19.1584 10 19.4404 10.0134 19.705 10.0402C19.9765 10.067 20.2237 10.1038 20.4465 10.1507C20.6693 10.1976 20.8538 10.2478 21 10.3014L20.7807 12.4213C20.544 12.3342 20.2968 12.2639 20.0392 12.2103C19.7815 12.1567 19.5205 12.1299 19.2559 12.1299C18.6153 12.1299 18.1349 12.2806 17.8146 12.582C17.5013 12.8768 17.3446 13.3356 17.3446 13.9585C17.3446 14.1192 17.3446 14.3068 17.3446 14.5211C17.3446 14.7287 17.3446 14.8861 17.3446 14.9933L17.4491 15.4555V20.6397C17.4491 21.4702 17.4491 22.2237 17.4491 22.9002C17.4491 23.5767 17.4491 24.2766 17.4491 25H14.7963ZM13 16.9324V14.9933H20.5405V16.9324C19.8721 16.9324 19.2245 16.9324 18.5979 16.9324C17.9782 16.9324 17.3516 16.9324 16.718 16.9324H15.5587H13Z" fill="white"/>
</svg>
