<svg width="34" height="34" viewBox="0 0 34 34" fill="none" xmlns="http://www.w3.org/2000/svg">
<circle cx="17" cy="17" r="16.5" stroke="white" stroke-opacity="0.5"/>
<path fill-rule="evenodd" clip-rule="evenodd" d="M20.7333 10.0667H13.2667C11.4994 10.0667 10.0667 11.4994 10.0667 13.2667V20.7333C10.0667 22.5006 11.4994 23.9333 13.2667 23.9333H20.7333C22.5006 23.9333 23.9333 22.5006 23.9333 20.7333V13.2667C23.9333 11.4994 22.5006 10.0667 20.7333 10.0667ZM13.2667 9C10.9103 9 9 10.9103 9 13.2667V20.7333C9 23.0897 10.9103 25 13.2667 25H20.7333C23.0897 25 25 23.0897 25 20.7333V13.2667C25 10.9103 23.0897 9 20.7333 9H13.2667Z" fill="white"/>
<path fill-rule="evenodd" clip-rule="evenodd" d="M17 19.9565C18.6328 19.9565 19.9565 18.6328 19.9565 17C19.9565 15.3672 18.6328 14.0435 17 14.0435C15.3672 14.0435 14.0435 15.3672 14.0435 17C14.0435 18.6328 15.3672 19.9565 17 19.9565ZM17 21C19.2091 21 21 19.2091 21 17C21 14.7909 19.2091 13 17 13C14.7909 13 13 14.7909 13 17C13 19.2091 14.7909 21 17 21Z" fill="white"/>
<path d="M22.3333 12.6667C22.3333 13.219 21.8856 13.6667 21.3333 13.6667C20.781 13.6667 20.3333 13.219 20.3333 12.6667C20.3333 12.1144 20.781 11.6667 21.3333 11.6667C21.8856 11.6667 22.3333 12.1144 22.3333 12.6667Z" fill="white"/>
</svg>
