<svg width="34" height="34" viewBox="0 0 34 34" fill="none" xmlns="http://www.w3.org/2000/svg">
<circle cx="17" cy="17" r="16.5" stroke="white" stroke-opacity="0.5"/>
<path d="M10.6726 18.9219C9.65046 17.6207 6.98876 13.2976 7.00004 12.6521C7.00049 12.6262 7.00176 12.6005 7.01624 12.579C7.22978 12.2617 10.2933 12.492 10.6726 12.492C11.0656 12.492 12.8997 17.1907 13.9477 16.9434C14.9957 16.6961 14.3407 13.3575 13.9477 12.8629C13.5547 12.3683 12.9332 12.3298 13.2927 12.2447C14.4678 11.9664 17.8778 11.8737 17.8778 12.2447C17.8778 12.6156 17.8778 16.8816 18.4018 16.9434C18.9088 17.0033 20.8058 14.2077 21.6008 12.6449C21.6488 12.5504 21.74 12.4868 21.8457 12.4791C22.4765 12.4331 24.7138 12.2891 25.7718 12.4734C25.8355 12.4845 25.897 12.5167 25.9197 12.5772C26.265 13.4953 22.5939 17.2073 22.5939 17.6854C22.5939 18.18 26 21.024 26 21.3949C26 21.6917 25.738 21.7659 25.607 21.7659C24.2533 21.7659 21.5681 22.0626 21.1489 21.7659C20.6249 21.3949 19.4498 19.5402 18.6638 19.6638C17.8778 19.7875 18.1398 21.5186 17.8778 21.7659C17.6158 22.0132 15.1267 22.1368 13.9477 21.7659C12.7687 21.3949 11.7168 20.2511 10.6726 18.9219Z" fill="white"/>
</svg>
