<svg width="34" height="34" viewBox="0 0 34 34" fill="none" xmlns="http://www.w3.org/2000/svg">
<circle cx="17" cy="17" r="16.5" stroke="white" stroke-opacity="0.5"/>
<path fill-rule="evenodd" clip-rule="evenodd" d="M13 10C10.2386 10 8 12.2386 8 15V18C8 20.7614 10.2386 23 13 23H21C23.7614 23 26 20.7614 26 18V15C26 12.2386 23.7614 10 21 10H13ZM18.5 17.366C19.1667 16.9811 19.1667 16.0189 18.5 15.634L16.25 14.3349C15.5833 13.95 14.75 14.4312 14.75 15.201V17.799C14.75 18.5688 15.5833 19.05 16.25 18.6651L18.5 17.366Z" fill="white"/>
</svg>
