<svg width="16" height="11" viewBox="0 0 16 11" fill="none" xmlns="http://www.w3.org/2000/svg">
<path fill-rule="evenodd" clip-rule="evenodd" d="M2 1H13C13.5523 1 14 1.44772 14 2V3.88459L8 6.45602L1.19696 3.54043C1.13266 3.51287 1.06579 3.49984 1 3.49987V2C1 1.44772 1.44772 1 2 1ZM1 4.54398V9C1 9.55229 1.44772 10 2 10H13C13.5523 10 14 9.55228 14 9V4.97256L8.27574 7.42581C8.09966 7.50127 7.90034 7.50127 7.72426 7.42581L1 4.54398ZM15 4.54398V9C15 10.1046 14.1046 11 13 11H2C0.89543 11 0 10.1046 0 9V2C0 0.895431 0.895431 0 2 0H13C14.1046 0 15 0.895431 15 2V3.49987C15.1939 3.49996 15.3784 3.61352 15.4596 3.80304C15.5684 4.05686 15.4508 4.35079 15.197 4.45957L15 4.54398Z" fill="#71C3F2"/>
</svg>
