<svg width="66" height="47" viewBox="0 0 66 47" fill="none" xmlns="http://www.w3.org/2000/svg">
<g clip-path="url(#clip0_44_465)">
<path d="M12.7954 13.6762C13.8675 13.6573 14.9439 13.6286 16.0215 13.5909C17.0979 13.5477 17.6477 13.53 17.6752 13.53C20.7418 13.53 23.1817 14.2906 24.9948 15.8182C26.808 17.3459 27.7162 19.3817 27.7162 21.9279C27.7162 23.2928 27.4479 24.5781 26.9124 25.787C26.3758 26.9947 25.5985 28.0564 24.5902 28.9564C23.6589 29.7944 22.5637 30.4221 21.3147 30.846C20.0656 31.2689 18.6659 31.4793 17.121 31.4793C15.5762 31.4793 14.5085 31.3464 14.0137 31.0841C13.5134 30.8228 13.2682 30.318 13.2682 29.5708C13.2682 29.5143 13.3045 28.5379 13.3815 26.6538C13.454 24.7652 13.4958 22.9043 13.4958 21.0622C13.4958 19.0685 13.4364 17.4887 13.3232 16.3275C13.2088 15.1662 13.0362 14.2817 12.7998 13.6717L12.7954 13.6762ZM15.7345 15.6699C15.6806 17.4112 15.6388 18.9721 15.6168 20.357C15.5937 21.7419 15.5805 22.9452 15.5805 23.9737C15.5805 24.877 15.5893 25.7571 15.608 26.6139C15.6267 27.4707 15.663 28.3076 15.7081 29.1213C16.0764 29.2209 16.4492 29.2929 16.8208 29.3449C17.1936 29.3925 17.5663 29.4169 17.9435 29.4169C20.1283 29.4169 21.8963 28.7748 23.2411 27.494C24.5858 26.2143 25.2587 24.5338 25.2587 22.4593C25.2587 20.3847 24.5902 18.7242 23.2597 17.4345C21.9282 16.1448 20.192 15.5027 18.0622 15.5027C17.6312 15.5027 17.2222 15.5171 16.8395 15.5459C16.458 15.5747 16.0852 15.6168 15.7345 15.6743V15.6699Z" fill="#FEFEFE"/>
<path d="M33.2634 30.8305C32.9357 31.0209 32.6179 31.1582 32.3222 31.249C32.0231 31.3398 31.7361 31.3818 31.4634 31.3818C31.0775 31.3818 30.818 31.2722 30.6816 31.0531C30.5453 30.835 30.4771 30.3966 30.4771 29.7401C30.4771 29.3637 30.5134 28.5169 30.5816 27.2039C30.6498 25.891 30.686 24.763 30.686 23.8154C30.686 22.7869 30.641 21.9545 30.5453 21.3168C30.4496 20.6792 30.3001 20.1323 30.0857 19.6795C30.376 19.498 30.6718 19.3607 30.9807 19.2655C31.2897 19.1703 31.5899 19.1227 31.8845 19.1227C32.243 19.1227 32.4937 19.2135 32.6245 19.3983C32.7565 19.5843 32.8247 19.9264 32.8247 20.4257C32.8247 20.5585 32.7884 21.2781 32.7202 22.581C32.6476 23.8851 32.6157 25.1272 32.6157 26.2973C32.6157 27.3966 32.6696 28.3099 32.7752 29.0338C32.8796 29.7567 33.0435 30.3523 33.2612 30.8184V30.8283L33.2634 30.8305ZM33.1677 15.3743C33.1677 15.8404 33.0083 16.2312 32.6949 16.5455C32.3815 16.8588 31.9857 17.0116 31.5096 17.0116C31.0962 17.0116 30.7641 16.8876 30.5233 16.6408C30.2825 16.3928 30.1605 16.0607 30.1605 15.6422C30.1605 15.1806 30.3155 14.7909 30.6333 14.4666C30.9466 14.1433 31.3282 13.9817 31.7735 13.9817C32.1825 13.9817 32.5146 14.1156 32.7774 14.3769C33.0402 14.6393 33.1732 14.9714 33.1732 15.3765H33.1688L33.1677 15.3743Z" fill="#FEFEFE"/>
<path d="M45.5992 25.7061H39.2383C38.6116 27.1342 38.1751 28.2567 37.9255 29.066C37.6803 29.8796 37.5527 30.5793 37.5527 31.1593L37.5395 31.3542C37.3581 31.3774 37.2262 31.3918 37.1437 31.3962C37.0612 31.3962 36.9843 31.4018 36.9161 31.4018C36.407 31.4018 36.0167 31.2922 35.7528 31.073C35.4845 30.8538 35.3525 30.535 35.3525 30.1165C35.3525 29.6981 36.1112 27.8892 37.6341 24.6866C39.1559 21.484 40.483 18.5105 41.6188 15.7596C41.4913 15.5692 41.3593 15.3887 41.2142 15.2116C41.0691 15.0356 40.914 14.8551 40.7513 14.6736C41.0427 14.2983 41.3055 14.0215 41.5463 13.8511C41.7871 13.6806 42.0279 13.5942 42.2687 13.5942C42.6051 13.5942 42.9317 13.8234 43.2494 14.2795C43.5672 14.7367 43.9356 15.5072 44.3622 16.6009C44.7305 17.543 45.2341 18.8614 45.8796 20.5552C48.061 26.294 49.5729 29.5918 50.4317 30.4442C50.1326 30.7874 49.8588 31.0342 49.6092 31.1815C49.3596 31.3287 49.0957 31.4051 48.823 31.4051C48.0325 31.4051 47.133 29.9914 46.1291 27.1696C45.9015 26.5464 45.7245 26.056 45.597 25.7039L45.5992 25.7061ZM42.5644 17.7644L42.0015 19.1448C41.102 21.3622 40.4379 22.9851 40.0157 24.0224H44.9636C44.5634 22.8999 44.1643 21.815 43.764 20.7766C43.3649 19.7393 42.9647 18.7352 42.5644 17.7644Z" fill="#FEFEFE"/>
<path d="M59.3578 23.9925C59.9295 24.1973 60.6387 24.8018 61.4843 25.8014C61.7108 26.0726 61.8834 26.2774 62.0011 26.4147C62.8873 27.4232 63.6603 28.2092 64.3189 28.7749C64.9775 29.3417 65.5361 29.6837 66.0001 29.8166C65.7736 30.4586 65.5328 30.9158 65.2821 31.1915C65.0325 31.4671 64.7323 31.6055 64.3871 31.6055C64.0957 31.6055 63.7779 31.4771 63.4272 31.2247C63.0775 30.9734 62.6685 30.5538 62.2012 29.9682C61.8471 29.5398 61.3699 28.9498 60.7652 28.1937C58.9157 25.8479 57.4391 24.6722 56.3439 24.6722C56.2164 24.6722 56.0668 24.6778 55.8854 24.6911C55.704 24.7055 55.4808 24.7243 55.2125 24.7575C55.2587 26.5896 55.34 27.9269 55.4489 28.7782C55.5577 29.6295 55.726 30.287 55.9525 30.7531C55.5753 30.9668 55.2301 31.124 54.9123 31.2291C54.5945 31.3288 54.3032 31.3819 54.0349 31.3819C53.6039 31.3819 53.3081 31.2679 53.1541 31.0387C52.9947 30.8107 52.9177 30.3391 52.9177 29.6206C52.9177 29.3738 52.954 28.2933 53.031 26.3804C53.108 24.4674 53.1453 22.6685 53.1453 20.9848C53.1453 18.8194 53.0904 17.2109 52.9815 16.1692C52.8727 15.1275 52.6945 14.3327 52.4548 13.7803C53.4675 13.7471 54.522 13.695 55.6303 13.6275C56.7343 13.5555 57.3522 13.5234 57.4753 13.5234C59.239 13.5234 60.6288 13.9607 61.6415 14.8408C62.6542 15.7209 63.1633 16.9109 63.1633 18.4098C63.1633 19.7327 62.8411 20.8608 62.2001 21.8028C61.5546 22.7449 60.6101 23.4733 59.3567 23.987V23.9914L59.3578 23.9925ZM55.4038 15.5936C55.3411 16.9641 55.295 18.277 55.2631 19.5335C55.2312 20.7899 55.218 22.0032 55.218 23.1789C55.2818 23.1789 55.373 23.1789 55.4951 23.1933C55.6182 23.2077 55.7084 23.2077 55.7722 23.2077C57.3709 23.2077 58.6211 22.8124 59.5205 22.0276C60.4199 21.2427 60.8751 20.1478 60.8751 18.7541C60.8751 17.688 60.5431 16.86 59.88 16.2799C59.2159 15.6998 58.2846 15.4043 57.0762 15.4043C56.809 15.4043 56.5407 15.4175 56.2636 15.4519C55.991 15.4851 55.7051 15.5327 55.4049 15.5991V15.5947L55.4038 15.5936Z" fill="#FEFEFE"/>
<path d="M22.4043 47.0009C10.0465 46.9832 0 36.4499 0 23.4988C0 10.5367 10.0641 0.0012207 22.4362 0.0012207C26.3934 0.0012207 30.288 1.09606 33.6911 3.16619C34.0176 3.36546 34.1265 3.7983 33.9363 4.14148C33.7449 4.48465 33.3271 4.59868 33.0049 4.39831C29.8108 2.45216 26.1537 1.42374 22.4362 1.42374C10.8184 1.42817 1.36343 11.3316 1.36343 23.4988C1.36343 35.6661 10.8184 45.5739 22.4362 45.5739C27.6337 45.5739 32.6278 43.5758 36.4938 39.9447C36.7764 39.6779 37.2074 39.7067 37.457 40.0023C37.7077 40.2979 37.6846 40.7495 37.4031 41.0108C33.304 44.8588 28.0152 46.9843 22.5054 47.002H22.4043V47.0009Z" fill="#FEFEFE"/>
<path d="M22.4363 44.9829C11.1275 44.9829 1.92651 35.3463 1.92651 23.5023C1.92651 11.6582 11.1275 2.01831 22.4363 2.01831C27.9153 2.01831 33.0633 4.25449 36.9392 8.3084C37.2075 8.58958 37.2075 9.04125 36.9392 9.3169C36.672 9.59255 36.2399 9.59697 35.976 9.3169C32.3596 5.52978 27.5524 3.44526 22.4363 3.44526C11.8818 3.44526 3.28995 12.4431 3.28995 23.4978C3.28995 34.5525 11.8818 43.5504 22.4363 43.5504C28.4244 43.5504 33.9584 40.6954 37.6165 35.7227C37.8485 35.4083 38.2752 35.3518 38.5698 35.5942C38.87 35.8367 38.925 36.2839 38.693 36.5939C34.7764 41.9242 28.8477 44.9784 22.4319 44.9784L22.4363 44.984V44.9829Z" fill="#FEFEFE"/>
<path d="M57.1225 38.3773C57.2731 38.2843 57.4149 38.4636 57.5557 38.6817C57.6414 38.819 57.6843 38.9286 57.6843 39.0105C57.6865 39.0481 57.681 39.0869 57.6667 39.1223C57.6535 39.1577 57.6326 39.1898 57.6052 39.2164C57.5513 39.2695 57.0917 39.7367 56.2043 39.7367C55.0421 39.7367 53.9976 38.757 53.9998 37.4983C54.002 36.2684 55.0421 35.323 56.2043 35.323C57.0873 35.323 57.6678 35.9252 57.6876 36.0348C57.7074 36.1444 57.6502 36.2618 57.5678 36.3758C57.4149 36.5883 57.2555 36.7212 57.1368 36.6736C57.0719 36.647 56.7299 36.3713 56.2021 36.3713C55.7821 36.3713 55.0399 36.6835 55.0399 37.4883C55.0399 38.3518 55.7799 38.685 56.2021 38.685C56.5342 38.6895 56.8586 38.581 57.1214 38.3773H57.1225Z" fill="#FEFEFE"/>
<path d="M45.8334 38.7735C45.8334 38.7935 45.8411 38.8123 45.8554 38.8256C45.8686 38.8389 45.8873 38.8477 45.9071 38.8477H47.7851C48.0523 38.8477 48.0523 38.8909 48.0523 39.3127C48.0523 39.7422 48.0523 39.7422 47.7851 39.7422H45.0593C44.9208 39.7422 44.9219 39.6381 44.9219 39.5905V35.4735C44.9219 35.3761 44.9516 35.3285 45.0945 35.3296H47.7862C48.0523 35.3296 48.0523 35.3296 48.0523 35.7536C48.0523 36.1776 48.0523 36.1709 47.7862 36.1787H45.9082C45.8895 36.1787 45.8708 36.1853 45.8576 36.1986C45.8444 36.2119 45.8356 36.2296 45.8345 36.2484V37.0555C45.8345 37.0754 45.8422 37.0931 45.8554 37.1075C45.8686 37.1208 45.8873 37.1296 45.9071 37.1296H47.1748C47.4431 37.1296 47.4409 37.1839 47.4409 37.5293C47.4409 37.8957 47.4343 37.9377 47.1748 37.9377H45.9082C45.8895 37.9377 45.8708 37.9444 45.8565 37.9577C45.8433 37.971 45.8345 37.9887 45.8345 38.0086V38.7747L45.8334 38.7735Z" fill="#FEFEFE"/>
<path d="M48.8758 35.324H49.9732C50.5186 35.324 51.01 35.5542 51.4235 35.9716C51.8369 36.3889 52.0326 36.9192 52.0326 37.5303C52.0326 38.1413 51.8171 38.6295 51.4268 39.079C51.2497 39.2893 51.0276 39.4576 50.778 39.5716C50.5284 39.6856 50.2558 39.7421 49.9809 39.7377H48.7384C48.6021 39.7377 48.6021 39.6336 48.6021 39.5849V35.6273C48.6021 35.4745 48.601 35.324 48.8769 35.324H48.8758ZM50.7934 38.3484C50.9012 38.2432 50.9859 38.1181 51.0419 37.9786C51.098 37.8391 51.1255 37.6897 51.1211 37.5402C51.1255 37.3897 51.0991 37.2402 51.0441 37.1007C50.9892 36.9613 50.9067 36.8328 50.8022 36.7255C50.7066 36.6225 50.5911 36.5395 50.4625 36.4841C50.3338 36.4277 50.1953 36.4 50.0545 36.4H49.5861C49.5664 36.4 49.5477 36.4077 49.5345 36.4221C49.5213 36.4354 49.5125 36.4554 49.5125 36.4742V38.5996C49.5125 38.6196 49.5202 38.6373 49.5345 38.6517C49.5477 38.665 49.5674 38.6727 49.5861 38.6727H50.06C50.3305 38.6716 50.5757 38.5642 50.7934 38.3495V38.3484Z" fill="#FEFEFE"/>
<path d="M52.5823 35.6262C52.5823 35.4745 52.5823 35.324 52.8583 35.324H53.2189C53.4938 35.324 53.4938 35.4756 53.4938 35.6262V39.4332C53.4938 39.5838 53.4938 39.7355 53.2189 39.7355H52.8583C52.5823 39.7355 52.5823 39.6059 52.5823 39.4332V35.6262Z" fill="#FEFEFE"/>
<path d="M60.5914 35.634L62.2836 39.2196C62.3495 39.3569 62.3484 39.4886 62.0999 39.6082L61.8756 39.7067C61.5974 39.8107 61.4809 39.6369 61.4248 39.5218L61.1235 38.8864C61.118 38.8731 61.1081 38.8631 61.0971 38.8554C61.0851 38.8476 61.0719 38.8432 61.0576 38.8432H59.4302C59.416 38.8432 59.4028 38.8476 59.3907 38.8554C59.3786 38.8631 59.3698 38.8742 59.3632 38.8864L59.0773 39.5163C59.0113 39.6624 58.9486 39.8008 58.687 39.7089L58.3945 39.6059C58.1361 39.5141 58.1691 39.3657 58.235 39.2284L59.8613 35.6328C60.0086 35.3218 60.0108 35.3218 60.2285 35.3218C60.4451 35.3218 60.4407 35.3229 60.5914 35.634ZM60.1406 37.1805L59.7964 37.9355C59.7909 37.9465 59.7887 37.9587 59.7909 37.972C59.792 37.9842 59.7964 37.9963 59.803 38.0063C59.8096 38.0163 59.8195 38.0251 59.8305 38.0307C59.8415 38.0362 59.8536 38.0395 59.8657 38.0384H60.6112C60.6232 38.0384 60.6353 38.0351 60.6463 38.0295C60.6573 38.024 60.6661 38.0152 60.6727 38.0041C60.6793 37.9941 60.6826 37.9819 60.6837 37.9687C60.6848 37.9565 60.6815 37.9443 60.6771 37.9332L60.3198 37.1794C60.2296 36.9878 60.2296 36.9878 60.1406 37.1805Z" fill="#FEFEFE"/>
<path d="M63.7428 38.8443H65.4185C65.6934 38.8443 65.6934 38.996 65.6934 39.1465V39.4321C65.6934 39.5838 65.6736 39.7343 65.4185 39.7343H63.1018C62.8269 39.7343 62.8269 39.6303 62.8269 39.4321V35.6262C62.8269 35.4745 62.8269 35.324 63.1018 35.324H63.4657C63.7417 35.324 63.7417 35.4756 63.7417 35.6262V38.8432L63.7428 38.8443Z" fill="#FEFEFE"/>
<path d="M42.0762 39.2451C42.2225 39.2451 42.4589 39.2329 42.5501 39.0967C42.6018 39.0192 43.3561 37.3753 43.3561 37.3753C43.3605 37.3642 43.3671 37.3543 43.3748 37.3454C43.3836 37.3366 43.3935 37.331 43.4045 37.3266C43.4155 37.3233 43.4276 37.3222 43.4397 37.3233C43.4518 37.3244 43.4628 37.3288 43.4727 37.3354C43.4771 37.3388 43.4804 37.3432 43.4826 37.3476C43.4848 37.3521 43.4859 37.3576 43.4859 37.3631V37.5159L43.4793 39.6004C43.4793 39.6004 43.4661 39.7299 43.5837 39.7355C43.686 39.7388 44.2841 39.7355 44.2841 39.7355C44.3061 39.7333 44.3281 39.7244 44.3446 39.7089C44.3611 39.6934 44.371 39.6724 44.3732 39.6491V35.6351C44.3721 35.5664 44.3479 35.4989 44.3039 35.4458C44.261 35.3915 44.2006 35.3539 44.1335 35.3373C44.1104 35.3317 44.0873 35.3284 44.0642 35.3284L43.5474 35.324C43.4924 35.3251 43.4375 35.3395 43.3902 35.3694C43.3429 35.3982 43.3033 35.4391 43.278 35.4878L42.1565 37.9664C42.1499 37.9819 42.1389 37.9952 42.1246 38.0052C42.1114 38.0152 42.0949 38.0207 42.0773 38.0218C42.0608 38.0196 42.0444 38.0129 42.0301 38.003C42.0158 37.993 42.0048 37.9808 41.996 37.9653L40.8766 35.4856C40.8503 35.4369 40.8118 35.3959 40.7645 35.3661C40.7172 35.3373 40.6622 35.3218 40.6073 35.3218L40.0905 35.3262C40.0674 35.3251 40.0432 35.3284 40.0212 35.3351C39.9541 35.3517 39.8947 35.3893 39.8508 35.4436C39.8079 35.4967 39.7826 35.5642 39.7815 35.6328V39.6469C39.7837 39.669 39.7947 39.6901 39.8101 39.7056C39.8266 39.7211 39.8475 39.731 39.8706 39.7333C39.8706 39.7333 40.4676 39.7366 40.571 39.7333C40.6886 39.7288 40.6743 39.5982 40.6743 39.5982L40.6677 37.5159V37.3642C40.6677 37.3587 40.6688 37.3532 40.671 37.3487C40.6732 37.3443 40.6765 37.3399 40.6809 37.3366C40.6908 37.3299 40.7029 37.3266 40.7139 37.3244C40.726 37.3233 40.7381 37.3244 40.7491 37.3277C40.7601 37.331 40.7711 37.3377 40.7788 37.3465C40.7876 37.3543 40.7942 37.3642 40.7986 37.3764C40.7986 37.3764 41.5529 39.0203 41.6045 39.0978C41.6936 39.2351 41.9289 39.2473 42.0784 39.2473H42.0773L42.0762 39.2451Z" fill="#FEFEFE"/>
<path d="M61.3523 43.64C61.5029 43.547 61.6448 43.7263 61.7855 43.9422C61.8713 44.0795 61.9153 44.1891 61.9153 44.2721C61.9175 44.3097 61.9109 44.3485 61.8977 44.3839C61.8845 44.4193 61.8625 44.4514 61.8361 44.478C61.7822 44.5311 61.3226 44.9983 60.4353 44.9983C59.2731 44.9983 58.2285 44.0186 58.2307 42.7599C58.2329 41.53 59.2731 40.5835 60.4353 40.5835C61.3182 40.5835 61.8988 41.1857 61.9186 41.2953C61.9384 41.4049 61.8801 41.5222 61.7976 41.6363C61.6448 41.8488 61.4854 41.9817 61.3666 41.9341C61.3017 41.9086 60.9598 41.6341 60.432 41.6341C60.012 41.6341 59.2698 41.9462 59.2698 42.7521C59.2698 43.6134 60.0098 43.9477 60.432 43.9488C60.7641 43.9533 61.0884 43.8448 61.3512 43.6411L61.3523 43.64Z" fill="#FEFEFE"/>
<path d="M56.678 40.9023C56.678 40.7507 56.678 40.6001 56.954 40.6001H57.3146C57.5906 40.6001 57.5906 40.7507 57.5906 40.9023V44.7094C57.5906 44.861 57.5906 45.0116 57.3146 45.0116H56.954C56.6791 45.0116 56.6791 44.8588 56.6791 44.7094V40.9023H56.678Z" fill="#FEFEFE"/>
<path d="M50.8186 44.4591C50.8835 44.5953 50.8945 44.737 50.7032 44.8289L50.4052 44.9717C50.2205 45.0613 50.061 44.9484 49.9907 44.799C49.9907 44.799 49.7916 44.3927 49.5069 43.7761C49.5025 43.7628 49.4937 43.7517 49.4816 43.744C49.4695 43.7362 49.4563 43.7329 49.442 43.7329H48.5788C48.558 43.7351 48.5382 43.744 48.5228 43.7595C48.5074 43.775 48.4986 43.7949 48.4964 43.8159V44.6971C48.4964 44.8964 48.4964 44.9993 48.216 44.9993H47.8279C47.553 44.9993 47.553 44.8953 47.553 44.6971V40.7439C47.553 40.6421 47.5937 40.5923 47.7256 40.5923H49.232C50.4866 40.5923 50.757 41.6019 50.757 42.1532C50.757 42.5971 50.6339 43.0543 50.3425 43.3443C50.3315 43.3554 50.3238 43.3687 50.3216 43.3831C50.3183 43.3986 50.3205 43.413 50.326 43.4274C50.4173 43.6355 50.6383 44.0772 50.8186 44.4591ZM48.4975 42.8517C48.4975 42.8617 48.4997 42.8705 48.503 42.8794C48.5063 42.8882 48.5118 42.896 48.5184 42.9037C48.525 42.9104 48.5327 42.9159 48.5426 42.9192C48.5514 42.9226 48.5613 42.9248 48.5712 42.9248H49.2309C49.8334 42.9248 49.8686 42.4421 49.8686 42.1532C49.8686 41.9019 49.8334 41.3949 49.2309 41.3949H48.6448C48.6261 41.3949 48.6063 41.3993 48.5887 41.4059C48.5712 41.4137 48.5547 41.4237 48.5415 41.4381C48.5283 41.4513 48.5173 41.4679 48.5096 41.4857C48.5019 41.5034 48.4986 41.5233 48.4986 41.5421V42.8506L48.4975 42.8517Z" fill="#FEFEFE"/>
<path d="M55.6873 40.7473C56.048 40.9144 56.0744 40.9819 55.9941 41.1425L54.2799 44.5687C54.0468 45.0004 53.828 45.0004 53.717 45.0004C53.6169 45.0004 53.3475 45.0004 53.143 44.5975C52.6933 43.713 51.442 41.1325 51.442 41.1325C51.3793 40.9842 51.4552 40.8735 51.729 40.7439C52.0589 40.5867 52.1688 40.61 52.2535 40.7561C52.2535 40.7561 53.3805 43.1152 53.6488 43.6831C53.6543 43.6953 53.6642 43.7063 53.6752 43.7141C53.6873 43.7218 53.7005 43.7251 53.7148 43.7251C53.7291 43.7251 53.7423 43.7207 53.7543 43.7141C53.7664 43.7063 53.7752 43.6953 53.7807 43.6831L55.1365 40.7462C55.231 40.5712 55.3553 40.5945 55.6851 40.7484L55.6873 40.7473Z" fill="#FEFEFE"/>
<path d="M43.0272 43.7373C43.0272 44.706 41.5747 45.5329 40.1189 44.5953C39.9771 44.5045 39.832 44.3573 40.1145 44.0086C40.3784 43.6809 40.4389 43.7329 40.6434 43.8569C40.7237 43.9056 40.9601 44.0207 41.3559 44.1015C41.7617 44.1835 42.0739 43.9997 42.0717 43.7318C42.0662 42.9702 39.7671 43.3001 39.7715 41.8975C39.7737 40.9875 40.583 40.6022 41.2834 40.5901C41.7606 40.5801 42.229 40.7284 42.6138 41.0107C42.9283 41.2421 42.8579 41.3617 42.6479 41.582C42.3763 41.8687 42.3004 41.8056 42.1861 41.7458C41.9013 41.6096 41.5967 41.5211 41.2845 41.4823C40.9502 41.4447 40.7028 41.5709 40.7028 41.903C40.7028 42.5406 43.0283 42.2971 43.0283 43.7362L43.0272 43.7373Z" fill="#FEFEFE"/>
<path d="M44.5918 44.0341C44.5918 44.0541 44.5995 44.0718 44.6138 44.0862C44.627 44.0994 44.6468 44.1083 44.6655 44.1083H46.5435C46.8096 44.1083 46.8096 44.1515 46.8096 44.5732C46.8096 44.9541 46.7997 45.0028 46.5347 45.0028H43.8166C43.6792 45.0028 43.6792 44.8987 43.6792 44.8511V40.7452C43.6792 40.6478 43.7089 40.5946 43.8518 40.5957H46.5446C46.8107 40.5957 46.8107 40.5957 46.8107 41.0197C46.8107 41.4437 46.8107 41.4359 46.5446 41.4437H44.6666C44.6468 41.4437 44.6292 41.4514 44.6149 41.4647C44.6017 41.478 44.5929 41.4968 44.5929 41.5168V42.3238C44.5929 42.3437 44.6006 42.3614 44.6149 42.3758C44.6281 42.3891 44.6468 42.3968 44.6666 42.3968H45.9344C46.2026 42.3968 46.2004 42.4544 46.2004 42.7998C46.2004 43.1651 46.1939 43.2039 45.9344 43.2039H44.6666C44.6479 43.2039 44.6292 43.2116 44.6149 43.2249C44.6017 43.2382 44.5929 43.257 44.5929 43.2758V44.0352L44.5918 44.0341Z" fill="#FEFEFE"/>
<path d="M63.4843 44.0463C63.4843 44.0662 63.492 44.085 63.5063 44.0983C63.5195 44.1116 63.5381 44.1204 63.5579 44.1204H65.436C65.702 44.1204 65.702 44.1636 65.702 44.5854C65.702 45.0149 65.702 45.0149 65.436 45.0149H62.7102C62.5728 45.0149 62.5728 44.9108 62.5728 44.8632V40.7462C62.5728 40.6488 62.6024 40.6012 62.7454 40.6023H65.4371C65.7042 40.6023 65.7042 40.6023 65.7042 41.0263C65.7042 41.4503 65.7042 41.4437 65.4371 41.4514H63.559C63.5491 41.4514 63.5403 41.4536 63.5316 41.4569C63.5228 41.4603 63.5151 41.4658 63.5085 41.4724C63.5019 41.4791 63.4964 41.4868 63.4931 41.4957C63.4898 41.5045 63.4876 41.5145 63.4876 41.5234V42.3304C63.4876 42.3403 63.4898 42.3492 63.4931 42.358C63.4964 42.3669 63.5019 42.3747 63.5085 42.3824C63.5151 42.389 63.5228 42.3946 63.5316 42.3979C63.5403 42.4012 63.5502 42.4034 63.559 42.4034H64.8268C65.0951 42.4034 65.0929 42.4577 65.0929 42.8031C65.0929 43.1695 65.0863 43.2116 64.8268 43.2116H63.5568C63.5469 43.2116 63.5382 43.2138 63.5294 43.2171C63.5206 43.2204 63.5129 43.226 63.5063 43.2326C63.4997 43.2392 63.4942 43.247 63.4909 43.2558C63.4876 43.2647 63.4854 43.2747 63.4854 43.2835V44.044L63.4843 44.0463Z" fill="#FEFEFE"/>
</g>
<defs>
<clipPath id="clip0_44_465">
<rect width="66" height="47" fill="white"/>
</clipPath>
</defs>
</svg>
