<svg width="17" height="16" viewBox="0 0 17 16" fill="none" xmlns="http://www.w3.org/2000/svg">
<path fill-rule="evenodd" clip-rule="evenodd" d="M11 7C11 9.90359 8.84829 12 6.5 12C4.15171 12 2 9.90359 2 7C2 4.09641 4.15171 2 6.5 2C8.84829 2 11 4.09641 11 7ZM11.106 11.9391C9.92898 13.2121 8.29993 14 6.5 14C2.91015 14 0 10.866 0 7C0 3.13401 2.91015 0 6.5 0C10.0899 0 13 3.13401 13 7C13 8.18574 12.7262 9.30262 12.2431 10.2813L15.8398 13.3354C16.2608 13.6928 16.3186 14.3292 15.969 14.7567C15.6193 15.1842 14.9946 15.241 14.5736 14.8835L11.106 11.9391Z" fill="#A4EBF4" fill-opacity="0.8"/>
</svg>
