<svg width="34" height="34" viewBox="0 0 34 34" fill="none" xmlns="http://www.w3.org/2000/svg">
<path d="M17 23.0775C17.2267 23.0775 17.4392 23.0418 17.6375 22.9704C17.8358 22.9001 18.02 22.78 18.19 22.61L22.61 18.19C22.9217 17.8783 23.0775 17.4817 23.0775 17C23.0775 16.5183 22.9217 16.1217 22.61 15.81C22.2983 15.4983 21.9017 15.3425 21.42 15.3425C20.9383 15.3425 20.5417 15.4983 20.23 15.81L18.7 17.34V11.9C18.7 11.4183 18.5374 11.0143 18.2121 10.6879C17.8857 10.3626 17.4817 10.2 17 10.2C16.5183 10.2 16.1149 10.3626 15.7896 10.6879C15.4632 11.0143 15.3 11.4183 15.3 11.9V17.34L13.77 15.81C13.4583 15.4983 13.0617 15.3425 12.58 15.3425C12.0983 15.3425 11.7017 15.4983 11.39 15.81C11.0783 16.1217 10.9225 16.5183 10.9225 17C10.9225 17.4817 11.0783 17.8783 11.39 18.19L15.81 22.61C15.98 22.78 16.1642 22.9001 16.3625 22.9704C16.5608 23.0418 16.7733 23.0775 17 23.0775ZM17 34C14.6483 34 12.4383 33.5535 10.37 32.6604C8.30167 31.7685 6.5025 30.5575 4.9725 29.0275C3.4425 27.4975 2.23153 25.6983 1.3396 23.63C0.446534 21.5617 0 19.3517 0 17C0 14.6483 0.446534 12.4383 1.3396 10.37C2.23153 8.30167 3.4425 6.5025 4.9725 4.9725C6.5025 3.4425 8.30167 2.23097 10.37 1.3379C12.4383 0.445967 14.6483 0 17 0C19.3517 0 21.5617 0.445967 23.63 1.3379C25.6983 2.23097 27.4975 3.4425 29.0275 4.9725C30.5575 6.5025 31.7685 8.30167 32.6604 10.37C33.5535 12.4383 34 14.6483 34 17C34 19.3517 33.5535 21.5617 32.6604 23.63C31.7685 25.6983 30.5575 27.4975 29.0275 29.0275C27.4975 30.5575 25.6983 31.7685 23.63 32.6604C21.5617 33.5535 19.3517 34 17 34ZM17 30.6C20.7683 30.6 23.9774 29.2757 26.6271 26.6271C29.2757 23.9774 30.6 20.7683 30.6 17C30.6 13.2317 29.2757 10.0226 26.6271 7.3729C23.9774 4.7243 20.7683 3.4 17 3.4C13.2317 3.4 10.0232 4.7243 7.3746 7.3729C4.72487 10.0226 3.4 13.2317 3.4 17C3.4 20.7683 4.72487 23.9774 7.3746 26.6271C10.0232 29.2757 13.2317 30.6 17 30.6Z" fill="#83CBF6"/>
</svg>
